<svg xmlns="http://www.w3.org/2000/svg" viewBox="0 0 512 512" role="img" aria-labelledby="title desc">
  <title id="title">Civitas mark</title>
  <desc id="desc">Fingerprint style Civitas brand mark.</desc>
  <defs>
    <linearGradient id="fingerprintBlue" x1="118" y1="84" x2="390" y2="438" gradientUnits="userSpaceOnUse">
      <stop offset="0" stop-color="#2368f2"/>
      <stop offset="0.48" stop-color="#1687ee"/>
      <stop offset="1" stop-color="#21b9f3"/>
    </linearGradient>
  </defs>
  <rect width="512" height="512" fill="none"/>
  <g fill="none" stroke="url(#fingerprintBlue)" stroke-linecap="round" stroke-width="34">
    <path d="M122 158c31-63 91-94 154-94 71 0 132 38 164 98"/>
    <path d="M111 221c3-28 12-55 28-78"/>
    <path d="M403 220c-4-77-58-126-127-126-71 0-129 53-135 126"/>
    <path d="M95 264c26-11 37-30 37-54"/>
    <path d="M177 344c50-25 77-70 77-130"/>
    <path d="M442 205c11 47 6 95-13 139"/>
    <path d="M127 326c69-20 105-70 105-126 0-27 19-50 47-50 29 0 51 23 51 54 0 94-45 173-122 224"/>
    <path d="M346 428c51-45 80-106 84-171"/>
    <path d="M270 448c66-49 103-114 103-191 0-74-38-124-94-124-53 0-90 39-90 90 0 48-26 85-70 103"/>
  </g>
  <circle cx="255" cy="212" r="24" fill="#ffad16"/>
</svg>
